inDegrees=yes
name=ik_lifting_orientations
DataType=double
version=3
OpenSimVersion=4.5-2024-01-10-34fd6af
endheader
time	pelvis_tilt	pelvis_list	pelvis_rotation	pelvis_tx	pelvis_ty	pelvis_tz	hip_flexion_r	hip_adduction_r	hip_rotation_r	knee_angle_r	knee_angle_r_beta	ankle_angle_r	subtalar_angle_r	mtp_angle_r	hip_flexion_l	hip_adduction_l	hip_rotation_l	knee_angle_l	knee_angle_l_beta	ankle_angle_l	subtalar_angle_l	mtp_angle_l	lumbar_extension	lumbar_bending	lumbar_rotation	arm_flex_r	arm_add_r	arm_rot_r	elbow_flex_r	pro_sup_r	wrist_flex_r	wrist_dev_r	arm_flex_l	arm_add_l	arm_rot_l	elbow_flex_l	pro_sup_l	wrist_flex_l	wrist_dev_l
2.2	1.505197380841658	-1.631784846189932	85.33169697359425	0	0.9400000003403366	0	43.77361039087363	-10.62319170463802	0	57.02700245186781	0.9953089553279724	-5.229739471226188	0	0	43.77361039087363	-10.62319170463802	0	57.02700245186781	0.9953089553279724	-5.229739471226188	0	0	-3.746618749457131	-4.333179241061282	3.296247660658734	90.13922551140845	-2.332498889526779	35.53829331932893	17.58792168749075	-7.381873265055533	0	0	0	-9.97525217332772	0	75.03440847953568	7.38166302018603	0	0
2.21	1.486753144023764	-1.606569337886949	85.30505630458461	0	0.9400000003403366	0	43.77398828827803	-10.62251976105404	0	57.02772216650397	0.9953215167180482	-5.229416323171892	0	0	43.77398828827803	-10.62251976105404	0	57.02772216650397	0.9953215167180482	-5.229416323171892	0	0	-3.684076962385807	-4.246811086047095	3.294586562183654	87.03360363376137	-2.714286663408898	34.66794300256323	18.75351528864496	-7.380281346374316	0	0	0	-9.976045682455799	0	75.0343979340031	7.380071101498114	0	0
2.22	1.506045409914254	-1.637943533004999	85.15357558932712	0	0.9400000003403366	0	43.77439437507978	-10.6217979542256	0	57.0284953583923	0.9953350114622492	-5.229069282762925	0	0	43.77439437507978	-10.6217979542256	0	57.0284953583923	0.9953350114622492	-5.229069282762925	0	0	-3.606992694227389	-4.177260341294121	3.22301499058403	83.89569748467571	-3.000916229281112	33.94873173379754	19.4669068438508	-7.378570736991299	0	0	0	-9.97689830890717	0	75.03438660182192	7.37836049210791	0	0
2.23	1.528157162835817	-1.640492453620751	85.68657148175816	0	0.9400000003403366	0	43.77476880867572	-10.62113309662599	0	57.02920846000602	0.9953474574333101	-5.22874974683569	0	0	43.77476880867572	-10.62113309662599	0	57.02920846000602	0.9953474574333101	-5.22874974683569	0	0	-3.629661649379718	-4.056162448924691	2.341348361271989	80.88482204190296	-2.895013283133948	33.29061051624151	19.89190795797413	-7.376993209820154	0	0	0	-9.977684700084527	0	75.03437615294533	7.376782964930134	0	0
2.24	1.475996176591846	-1.597956206862418	85.5487336614547	0	0.9400000003403366	0	43.77520651442521	-10.62035609480914	0	57.03004175367054	0.9953620011513918	-5.228376403089785	0	0	43.77520651442521	-10.62035609480914	0	57.03004175367054	0.9953620011513918	-5.228376403089785	0	0	-3.546255573702093	-3.963406276396037	1.982777951404175	77.6743574844228	-2.82547675577792	32.78823779227942	20.20722711095662	-7.375149238096848	0	0	0	-9.978603834189075	0	75.0343639384072	7.374938993199065	0	0
2.25	1.457311975069054	-1.571521286289469	85.6359028127861	0	0.9400000003403366	0	43.77562760106354	-10.61960930113629	0	57.03084350310235	0.995375994318753	-5.228017714220108	0	0	43.77562760106354	-10.61960930113629	0	57.03084350310235	0.995375994318753	-5.228017714220108	0	0	-3.468643328463446	-3.825628090532302	1.58688093889415	74.50896118614519	-2.858145721249825	32.30917407983236	20.25664812659653	-7.373375066623897	0	0	0	-9.979488250555052	0	75.03435218763535	7.373164821718659	0	0
2.26	1.45166710879286	-1.557062305842992	85.75720099202184	0	0.9400000003403366	0	43.77601639223007	-10.61892053188802	0	57.0315839697199	0.9953889178992303	-5.227687027454862	0	0	43.77601639223007	-10.61892053188802	0	57.0315839697199	0.9953889178992303	-5.227687027454862	0	0	-3.341128340615889	-3.62521178291541	1.04583281057707	71.38695052829382	-2.703123115796404	32.01289488355721	20.03876199652358	-7.371736680394928	0	0	0	-9.980305089183851	0	75.03434133809135	7.371526435482797	0	0
2.27	1.485538459910616	-1.625448930623201	85.03264070323752	0	0.9400000003403366	0	43.77652199155749	-10.61802499236786	0	57.03254642866954	0.9954057159768168	-5.227257172400205	0	0	43.77652199155749	-10.61802499236786	0	57.03254642866954	0.9954057159768168	-5.227257172400205	0	0	-3.183392895336279	-3.582015714636506	1.716180390788532	68.37975380049862	-3.025958562459354	31.5195420127674	19.82024899354564	-7.369606286007073	0	0	0	-9.981367095889205	0	75.03432722891795	7.369396041085981	0	0
2.28	1.518768156016534	-1.675750408448196	84.5725259321117	0	0.9400000003403366	0	43.77700602908731	-10.61716872369888	0	57.0334680902508	0.9954218020059988	-5.226846366023241	0	0	43.77700602908731	-10.61716872369888	0	57.0334680902508	0.9954218020059988	-5.226846366023241	0	0	-2.955131362433364	-3.373500601963913	1.928728548946563	65.11556962660674	-3.277776828028639	31.12527900942789	20.11543430826624	-7.367566361604049	0	0	0	-9.982384146876273	0	75.03431372143875	7.367356116674371	0	0
2.29	1.545608463576353	-1.69000213981911	84.62583262422778	0	0.9400000003403366	0	43.77738450215448	-10.61650022269906	0	57.03418918023296	0.9954343874003908	-5.226525802920807	0	0	43.77738450215448	-10.61650022269906	0	57.03418918023296	0.9954343874003908	-5.226525802920807	0	0	-2.83788107769605	-3.205771698899327	1.737518033405645	62.02858621650985	-3.367892366814015	30.64020734769541	20.16640398520881	-7.365970850892661	0	0	0	-9.983179821801238	0	75.03430315981963	7.365760605956272	0	0
2.3	1.532006064611073	-1.666223565045046	84.51135507064953	0	0.9400000003403366	0	43.77773075575369	-10.61588929489425	0	57.03484910990782	0.9954459053460487	-5.22623295905697	0	0	43.77773075575369	-10.61588929489425	0	57.03484910990782	0.9954459053460487	-5.22623295905697	0	0	-2.738480795386635	-3.086505458040445	1.658558983023887	59.00114810360557	-3.321078835327012	30.09739591839017	20.13454237795993	-7.364510888363928	0	5.1180696029278e-51	0	-9.983908010284388	0	75.03429349730898	7.364300643421397	0	5.1180696029278e-51
2.31	1.525034582648654	-1.676087405525345	84.75071793238385	0	0.9400000003403366	0	43.77819201107769	-10.61507539215788	0	57.03572763358933	0.9954612384768478	-5.22584289160915	0	0	43.77819201107769	-10.61507539215788	0	57.03572763358933	0.9954612384768478	-5.22584289160915	0	0	-2.570099491331729	-2.882321919053782	1.427130617443905	55.87490135633158	-3.59925753553605	29.60543460847068	20.29241688596932	-7.362566373007042	0	0	0	-9.984877700147289	0	75.0342806255761	7.362356128056335	0	0
2.32	1.557991507590834	-1.689026805307769	84.86168260261688	0	0.9400000003403366	0	43.77854973811053	-10.61444525882481	0	57.03640951589269	0.9954731395681525	-5.225541054901112	0	0	43.77854973811053	-10.61444525882481	0	57.03640951589269	0.9954731395681525	-5.225541054901112	0	0	-2.409192690410101	-2.67745640321532	1.283339623811456	52.80989144776321	-3.72115393835176	29.14591238130394	20.38254692034858	-7.361057749142338	0	1.077613842297402e-35	0	-9.985630253224928	0	75.034270642884	7.360847504185286	0	1.077613842297402e-35
2.33	1.567755917185185	-1.704066429374747	84.68427978346705	0	0.9400000003403366	0	43.77887921415981	-10.61386530047406	0	57.03703759322326	0.995484101585528	-5.225263334938152	0	0	43.77887921415981	-10.61386530047406	0	57.03703759322326	0.995484101585528	-5.225263334938152	0	0	-2.272944133324878	-2.529637487956804	1.39826060303136	50.98615585581569	-3.397267977925728	28.93816012440816	19.3241721672557	-7.359668147234356	0	0	0	-9.986323474857691	0	75.03426144855867	7.359457902271461	0	0
